<?xml version="1.0" standalone="no"?>
<!DOCTYPE svg PUBLIC "-//W3C//DTD SVG 1.1//EN"
  "http://www.w3.org/Graphics/SVG/1.1/DTD/svg11.dtd">
<svg width="69.8493480682373mm" height="67.44670581817626mm" viewBox="-20.331674575805664 -14.67335224151611 69.8493480682373 67.44670581817626" xmlns="http://www.w3.org/2000/svg" version="1.1">
	<title>svgOutput</title>
	<desc>made with tinkercad</desc>
<path d="M -19.14803695678711 -4.004242420196532 L -19.122501373291016 -4.09600019454956 L -19.049999237060547 -4.356510639190673 L -19.026378631591797 -4.441388607025146 L -18.60064125061035 -5.974947929382323 L -18.40242576599121 -6.385274887084959 L -17.706960678100586 -7.8230762481689435 L -17.706727981567383 -7.823554039001463 L -17.43912124633789 -8.19200038909912 L -17.43756675720215 -8.194140434265135 L -16.49396324157715 -9.493862152099608 L -16.493837356567383 -9.49403667449951 L -16.384000778198242 -9.599999427795408 L -16.162015914916992 -9.81415557861328 L -14.998991012573242 -10.93634510040283 L -14.614750862121582 -11.196000099182127 L -13.267374992370605 -12.105081558227536 L -13.266458511352539 -12.105700492858883 L -12.841259002685547 -12.296844482421871 L -12.288000106811523 -12.54582595825195 L -11.350945472717285 -12.967524528503414 L -11.35080337524414 -12.967588424682614 L -10.897565841674805 -13.084858894348141 L -9.308048248291016 -13.49622821807861 L -8.840670585632324 -13.535724639892575 L -8.192000389099121 -13.590205192565914 L -7.202000141143799 -13.67335224151611 L 0 -13.67335224151611 L 16.384000778198242 -13.67335224151611 L 32.768001556396484 -13.67335224151611 L 36.383888244628906 -13.67335224151611 L 36.387001037597656 -13.67335224151611 L 36.85437774658203 -13.633854866027828 L 38.493804931640625 -13.49622821807861 L 38.94704055786133 -13.378956794738766 L 40.535804748535156 -12.967588424682614 L 40.959999084472656 -12.77700328826904 L 40.961246490478516 -12.776443481445309 L 42.4513053894043 -12.106219291687008 L 42.452457427978516 -12.105700492858883 L 42.836700439453125 -11.846045494079588 L 44.18369674682617 -10.936709403991697 L 44.184234619140625 -10.93634510040283 L 44.516056060791016 -10.616227149963377 L 45.055999755859375 -10.095579147338865 L 45.67983627319336 -9.49403667449951 L 45.94900131225586 -9.123450279235838 L 46.62523651123047 -8.19200038909912 L 46.89259338378906 -7.823739528656004 L 46.892730712890625 -7.823554039001463 L 47.0909423828125 -7.413227081298826 L 47.785884857177734 -5.974947929382323 L 47.90730285644531 -5.53780174255371 L 48.333003997802734 -4.004361152648925 L 48.333038330078125 -4.004242420196532 L 48.37399673461914 -3.553443193435668 L 48.51767349243164 -1.973000049591064 L 48.51767349243164 1.1102230246251565e-16 L 48.51767349243164 16.38400077819824 L 48.51767349243164 32.76800155639648 L 48.51767349243164 40.07300186157226 L 48.476715087890625 40.52379989624023 L 48.43706130981445 40.95999908447265 L 48.333065032958984 42.103931427001946 L 48.333038330078125 42.10424423217773 L 48.21162033081055 42.541389465332024 L 47.785884857177734 44.07494735717773 L 47.587669372558594 44.48527526855468 L 47.31190872192383 45.05599975585937 L 46.89295959472656 45.923076629638665 L 46.892730712890625 45.92355346679687 L 46.623565673828125 46.29413986206054 L 45.7952995300293 47.43500137329101 L 45.67983627319336 47.594036102294915 L 45.34801483154297 47.91415405273437 L 44.184234619140625 49.03634643554686 L 44.01308822631836 49.15200042724608 L 43.79999542236328 49.29600143432616 L 42.45343017578125 50.205043792724595 L 42.452457427978516 50.20569992065428 L 42.027015686035156 50.396842956542955 L 40.959999084472656 50.8767852783203 L 40.53623962402344 51.06739425659178 L 40.535804748535156 51.06758880615233 L 40.08256530761719 51.18486022949217 L 38.493804931640625 51.59622955322264 L 38.02642822265625 51.63572311401366 L 36.86399841308594 51.73330688476561 L 36.387001037597656 51.77335357666014 L 32.768001556396484 51.77335357666014 L 16.384000778198242 51.77335357666014 L 0 51.77335357666014 L -7.199106693267822 51.77335357666014 L -7.202000141143799 51.77335357666014 L -7.669378280639648 51.73385620117186 L -8.192000389099121 51.689960479736314 L -9.308048248291016 51.59622955322264 L -9.761285781860352 51.4789581298828 L -11.35080337524414 51.06758880615233 L -11.776002883911133 50.87644195556639 L -12.288000106811523 50.646030426025376 L -13.264653205871582 50.20651245117186 L -13.266458511352539 50.20569992065428 L -13.6506986618042 49.946044921874986 L -14.82757568359375 49.15200042724608 L -14.998991012573242 49.03634643554686 L -15.330812454223633 48.71622848510741 L -16.384000778198242 47.70001602172851 L -16.493837356567383 47.594036102294915 L -16.60934829711914 47.43500137329101 L -16.76300048828125 47.22344970703124 L -17.705947875976562 45.924629211425774 L -17.706727981567383 45.92355346679687 L -17.904943466186523 45.513225555419915 L -18.1261043548584 45.05599975585937 L -18.60064125061035 44.07494735717773 L -18.722301483154297 43.63780212402343 L -19.049999237060547 42.457386016845696 L -19.14796257019043 42.10451126098632 L -19.14803695678711 42.10424423217773 L -19.188753128051758 41.65344238281249 L -19.251462936401367 40.95999908447265 L -19.331674575805664 40.07300186157226 L -19.331674575805664 32.76800155639648 L -19.331674575805664 16.38400077819824 L -19.331674575805664 1.1102230246251565e-16 L -19.331674575805664 -1.973000049591064 L -19.290958404541016 -2.4237992763519283 L -19.148183822631836 -4.002628326416015 L -19.14803695678711 -4.004242420196532 z" fill="none" stroke="rgb(255,0,0)" stroke-width="0.001mm" />
</svg>